<?xml version="1.0" standalone="no"?>
<!DOCTYPE svg PUBLIC "-//W3C//DTD SVG 20010904//EN"
 "http://www.w3.org/TR/2001/REC-SVG-20010904/DTD/svg10.dtd">
<svg version="1.0" xmlns="http://www.w3.org/2000/svg"
 width="512.000000pt" height="512.000000pt" viewBox="0 0 512.000000 512.000000"
 preserveAspectRatio="xMidYMid meet">

<g transform="translate(0.000000,512.000000) scale(0.100000,-0.100000)"
fill="#000000" stroke="none">
<path d="M1720 4425 c-366 -101 -688 -191 -716 -199 -64 -20 -79 -46 -79 -136
0 -86 42 -175 95 -204 l35 -19 645 178 c355 98 651 180 658 182 9 4 12 -206
12 -1028 -1 -872 -3 -1029 -14 -1004 -8 17 -26 42 -42 57 -16 14 -294 150
-619 302 l-590 275 -6 65 c-6 71 -22 103 -71 139 -55 40 -98 52 -183 51 -87
-1 -132 -16 -185 -61 -63 -53 -60 11 -60 -1183 0 -1194 -3 -1130 60 -1183 55
-47 97 -60 190 -60 93 0 135 13 190 60 63 52 60 12 60 943 0 467 4 850 8 850
4 0 239 -108 522 -241 283 -132 527 -243 542 -246 68 -14 155 34 184 102 11
25 13 -29 14 -360 0 -254 4 -404 11 -430 15 -54 83 -121 132 -130 20 -4 54 -4
74 0 49 9 117 76 132 130 7 26 11 176 11 430 1 331 3 385 14 360 29 -68 116
-116 184 -102 15 3 259 114 541 246 283 133 519 241 523 241 4 0 8 -383 8
-850 0 -931 -3 -891 60 -943 55 -47 97 -60 190 -60 93 0 135 13 190 60 63 53
60 -11 60 1183 0 1194 3 1130 -60 1183 -53 45 -98 60 -185 61 -85 1 -128 -11
-183 -51 -49 -36 -65 -68 -71 -139 l-6 -65 -590 -275 c-324 -152 -603 -288
-619 -302 -16 -15 -34 -40 -42 -57 -11 -25 -13 131 -14 998 0 565 3 1027 7
1027 4 0 296 -79 648 -176 l640 -177 35 19 c53 29 95 118 95 204 0 87 -15 115
-74 134 -25 8 -352 99 -726 202 l-680 187 -35 -19 c-26 -14 -43 -36 -65 -81
-16 -34 -32 -63 -35 -63 -3 0 -18 27 -33 61 -28 59 -72 100 -107 98 -8 0 -314
-83 -680 -184z"/>
<path d="M747 3684 c-92 -28 -167 -134 -167 -234 0 -60 30 -130 75 -175 131
-131 370 -81 428 90 71 208 -117 386 -336 319z"/>
<path d="M4161 3683 c-88 -31 -161 -136 -161 -233 0 -99 73 -202 165 -233 102
-35 210 -13 280 58 99 98 98 252 -1 351 -68 69 -184 92 -283 57z"/>
</g>
</svg>
